Coordinates
version=1
nRows=14
nColumns=24
inDegrees=yes

Units are S.I. units (second, meters, Newtons, ...)
Angles are in degrees.

endheader
time	pelvis_tilt	pelvis_list	pelvis_rotation	pelvis_tx	pelvis_ty	pelvis_tz	hip_flexion_r	hip_adduction_r	hip_rotation_r	knee_angle_r	ankle_angle_r	subtalar_angle_r	mtp_angle_r	hip_flexion_l	hip_adduction_l	hip_rotation_l	knee_angle_l	ankle_angle_l	subtalar_angle_l	mtp_angle_l	lumbar_extension	lumbar_bending	lumbar_rotation
      1.49516667	     -2.80505311	      5.00294993	     -3.52489981	      0.41764890	      0.90831046	      0.28878658	     17.48066203	     -8.92632561	     -7.67439453	    -64.01712507	      6.11574044	      4.60989891	      9.23864014	     12.40814342	      8.68129903	     -5.39694445	    -16.83028154	      7.06197226	     -9.72791383	      2.17607552	     -2.62488069	     -9.52724447	      3.83814828
      1.49933333	     -2.75991083	      4.87206801	     -3.25315704	      0.42247911	      0.90936635	      0.28838127	     17.96274952	     -8.77028961	     -7.85702480	    -63.47597712	      6.54553166	      4.23409359	      8.91951867	     11.75133618	      8.64968762	     -5.03185727	    -16.31341856	      6.98463793	     -9.73239069	      2.20059392	     -2.73644776	     -9.38800295	      3.35594555
      1.50350000	     -2.70564689	      4.71342239	     -2.97619674	      0.42727003	      0.91039907	      0.28798892	     18.42034719	     -8.58082214	     -8.04625190	    -62.88421386	      6.91984397	      3.79906406	      8.80767805	     11.11012622	      8.57260819	     -4.70420654	    -15.85440173	      6.99325376	     -9.62397469	      2.21020447	     -2.87893357	     -9.18768197	      3.15547747
      1.50766667	     -2.64820231	      4.58170377	     -2.68726168	      0.43208198	      0.91139840	      0.28753659	     18.86537422	     -8.44395062	     -8.25297647	    -62.26173587	      7.24868716	      3.41860269	      8.35208549	     10.43637708	      8.53761768	     -4.29358730	    -15.32193378	      6.92763995	     -9.69976070	      2.23362560	     -2.99381407	     -9.01416175	      2.56568864
      1.51183333	     -2.56987020	      4.40320958	     -2.39966033	      0.43687983	      0.91242556	      0.28715747	     19.25685612	     -8.23800175	     -8.45546037	    -61.55480635	      7.49702911	      2.95245513	      8.19393178	      9.76714400	      8.42590768	     -3.96502478	    -14.85565458	      6.93401576	     -9.61262713	      2.24292144	     -3.13777980	     -8.82852914	      2.31464712
      1.51600000	     -2.50326332	      4.24451234	     -2.09673375	      0.44165043	      0.91337363	      0.28672787	     19.65891542	     -8.07026991	     -8.67423075	    -60.83059807	      7.72849824	      2.50541353	      8.00543530	      9.11173581	      8.33788174	     -3.59547072	    -14.37875159	      6.91518818	     -9.58362147	      2.25083963	     -3.27094251	     -8.62930368	      1.89883466
      1.52016667	     -2.44530195	      4.09511038	     -1.78739448	      0.44639488	      0.91425533	      0.28628542	     20.06561596	     -7.92151777	     -8.89996501	    -60.07904710	      7.94340902	      2.06517382	      7.77349271	      8.47253408	      8.25460392	     -3.21568605	    -13.90611190	      6.88113487	     -9.58173722	      2.25856880	     -3.39425343	     -8.43690692	      1.45520246
      1.52433333	     -2.40089728	      3.96656417	     -1.46256613	      0.45111326	      0.91506501	      0.28583242	     20.48040087	     -7.80238511	     -9.12962023	    -59.30608680	      8.17338660	      1.64476714	      7.29861747	      7.85279944	      8.19121737	     -2.79314780	    -13.43093997	      6.78062832	     -9.64592808	      2.27039069	     -3.50723697	     -8.29502848	      0.90196074
      1.52850000	     -2.35191691	      3.79881373	     -1.12218706	      0.45581639	      0.91586468	      0.28535632	     20.86101083	     -7.64724680	     -9.38540414	    -58.46366010	      8.33328635	      1.25350162	      6.41597547	      7.24276982	      8.07872209	     -2.35362746	    -12.99285668	      6.77039540	     -9.69889282	      2.29442905	     -3.62866632	     -8.07357545	      0.44450222
      1.53266667	     -2.27648337	      3.63233969	     -0.81198025	      0.46051716	      0.91665644	      0.28497093	     21.20723285	     -7.47599521	     -9.60767984	    -57.58043947	      8.43598732	      0.72009114	      6.29960765	      6.62232767	      7.94106434	     -2.04920502	    -12.58377850	      6.77156252	     -9.57043438	      2.29941652	     -3.77422514	     -7.88940807	      0.26857320
      1.53683333	     -2.22048623	      3.49762718	     -0.50015886	      0.46518819	      0.91735637	      0.28455480	     21.58000879	     -7.34837893	     -9.81733472	    -56.69190562	      8.51923251	      0.23354847	      6.01810599	      6.00720063	      7.84403900	     -1.65940412	    -12.12855462	      6.73301333	     -9.58967972	      2.30713297	     -3.90579780	     -7.71213249	     -0.27321781
      1.54100000	     -2.15247679	      3.34291061	     -0.18422432	      0.46988387	      0.91804903	      0.28413821	     21.91174779	     -7.20471334	    -10.04686515	    -55.74364191	      8.55176977	     -0.24776305	      5.80733312	      5.39078761	      7.71427077	     -1.30195672	    -11.70249858	      6.74817285	     -9.57641445	      2.31498137	     -4.02634648	     -7.50687102	     -0.62164561
      1.54516667	     -2.09939062	      3.18446392	      0.16869686	      0.47452394	      0.91867917	      0.28369176	     22.24080306	     -7.07159533	    -10.31434885	    -54.76033970	      8.60556738	     -0.71424672	      5.67583968	      4.82273193	      7.57136686	     -0.92778519	    -11.33008626	      6.72179887	     -9.51764521	      2.32071628	     -4.15331865	     -7.30079501	     -0.92086811
      1.54933333	     -2.03148978	      3.05875278	      0.46065631	      0.47919724	      0.91926768	      0.28331556	     22.56556736	     -6.95312697	    -10.50256961	    -53.76723938	      8.58455823	     -1.20348902	      5.46159038	      4.20272220	      7.46021752	     -0.56968542	    -10.88211626	      6.72644048	     -9.55973483	      2.32945233	     -4.27224614	     -7.13664528	     -1.41211970
